<mxfile host="app.diagrams.net" agent="Mozilla/5.0 (Windows NT 10.0; Win64; x64) AppleWebKit/537.36 (KHTML, like Gecko) Chrome/137.0.0.0 Safari/537.36" version="27.1.4">
  <diagram name="Page-1" id="8VxB4BbqgODA6P-S_9Hg">
    <mxGraphModel dx="1043" dy="550" grid="1" gridSize="10" guides="1" tooltips="1" connect="1" arrows="1" fold="1" page="1" pageScale="1" pageWidth="1169" pageHeight="827" math="0" shadow="0">
      <root>
        <mxCell id="0" />
        <mxCell id="1" parent="0" />
        <mxCell id="eBox8F9J_3k4DlokBTBl-44" value="``" style="rounded=0;whiteSpace=wrap;html=1;fillColor=none;strokeColor=#d3d3d3;strokeWidth=2;" vertex="1" parent="1">
          <mxGeometry x="780" y="430" width="300" height="220" as="geometry" />
        </mxCell>
        <mxCell id="eBox8F9J_3k4DlokBTBl-2" value="&lt;div style=&quot;text-align: center;&quot;&gt;&lt;span style=&quot;background-color: transparent; color: light-dark(rgb(255, 255, 255), rgb(18, 18, 18));&quot;&gt;VIP&lt;/span&gt;&lt;/div&gt;&lt;div&gt;10.3.131.20&lt;/div&gt;&lt;div&gt;10.3.131.30&lt;/div&gt;" style="align=left;verticalAlign=middle;fontFamily=Tahoma;fillColor=#005f4b;strokeColor=none;fontColor=#ffffff;strokeWidth=2;html=1;whiteSpace=wrap;spacing=6;fontStyle=0" vertex="1" parent="1">
          <mxGeometry x="360" y="370" width="80" height="60" as="geometry" />
        </mxCell>
        <mxCell id="eBox8F9J_3k4DlokBTBl-4" value="Keepalived" style="align=left;verticalAlign=middle;fontFamily=Tahoma;fillColor=#df8c42;strokeColor=none;fontColor=#ffffff;strokeWidth=2;html=1;whiteSpace=wrap;spacing=6;fontStyle=0" vertex="1" parent="1">
          <mxGeometry x="520" y="320" width="70" height="30" as="geometry" />
        </mxCell>
        <mxCell id="eBox8F9J_3k4DlokBTBl-5" value="Keepalived" style="align=left;verticalAlign=middle;fontFamily=Tahoma;fillColor=#df8c42;strokeColor=none;fontColor=#ffffff;strokeWidth=2;html=1;whiteSpace=wrap;spacing=6;fontStyle=0" vertex="1" parent="1">
          <mxGeometry x="520" y="558" width="70" height="30" as="geometry" />
        </mxCell>
        <mxCell id="eBox8F9J_3k4DlokBTBl-6" value="&lt;div&gt;&lt;span style=&quot;background-color: transparent; color: light-dark(rgb(0, 0, 0), rgb(255, 255, 255));&quot;&gt;HKVEBSNLB001P&lt;/span&gt;&lt;/div&gt;&lt;div&gt;&lt;span style=&quot;background-color: transparent; color: light-dark(rgb(0, 0, 0), rgb(255, 255, 255));&quot;&gt;10.3.131.51&lt;/span&gt;&lt;/div&gt;" style="sketch=0;shadow=0;dashed=0;html=1;labelPosition=center;verticalLabelPosition=bottom;verticalAlign=top;align=center;outlineConnect=0;shape=mxgraph.veeam.3d.virtual_machine;" vertex="1" parent="1">
          <mxGeometry x="657" y="312" width="46" height="46" as="geometry" />
        </mxCell>
        <mxCell id="eBox8F9J_3k4DlokBTBl-7" value="&lt;div&gt;&lt;span style=&quot;background-color: transparent; color: light-dark(rgb(0, 0, 0), rgb(255, 255, 255));&quot;&gt;HKVEBSNLB002P&lt;/span&gt;&lt;/div&gt;&lt;div&gt;&lt;span style=&quot;background-color: transparent; color: light-dark(rgb(0, 0, 0), rgb(255, 255, 255));&quot;&gt;10.3.131.52&lt;/span&gt;&lt;/div&gt;" style="sketch=0;shadow=0;dashed=0;html=1;labelPosition=center;verticalLabelPosition=bottom;verticalAlign=top;align=center;outlineConnect=0;shape=mxgraph.veeam.3d.virtual_machine;" vertex="1" parent="1">
          <mxGeometry x="657" y="550" width="46" height="46" as="geometry" />
        </mxCell>
        <mxCell id="eBox8F9J_3k4DlokBTBl-8" value="" style="edgeStyle=none;rounded=0;html=1;entryX=0.25;entryY=1;jettySize=auto;orthogonalLoop=1;strokeColor=#404040;strokeWidth=2;fontColor=#000000;jumpStyle=none;endArrow=block;endFill=1;startArrow=none;exitX=0.25;exitY=0;exitDx=0;exitDy=0;entryDx=0;entryDy=0;" edge="1" parent="1" source="eBox8F9J_3k4DlokBTBl-5" target="eBox8F9J_3k4DlokBTBl-4">
          <mxGeometry width="100" relative="1" as="geometry">
            <mxPoint x="240" y="490" as="sourcePoint" />
            <mxPoint x="340" y="490" as="targetPoint" />
          </mxGeometry>
        </mxCell>
        <mxCell id="eBox8F9J_3k4DlokBTBl-9" value="" style="edgeStyle=none;rounded=0;html=1;entryX=0.75;entryY=0;jettySize=auto;orthogonalLoop=1;strokeColor=#404040;strokeWidth=2;fontColor=#000000;jumpStyle=none;endArrow=block;endFill=1;startArrow=none;exitX=0.75;exitY=1;exitDx=0;exitDy=0;entryDx=0;entryDy=0;" edge="1" parent="1" source="eBox8F9J_3k4DlokBTBl-4" target="eBox8F9J_3k4DlokBTBl-5">
          <mxGeometry width="100" relative="1" as="geometry">
            <mxPoint x="550" y="450" as="sourcePoint" />
            <mxPoint x="550" y="370" as="targetPoint" />
          </mxGeometry>
        </mxCell>
        <mxCell id="eBox8F9J_3k4DlokBTBl-10" value="" style="verticalLabelPosition=bottom;html=1;verticalAlign=top;align=center;strokeColor=#b85450;fillColor=#f8cecc;shape=mxgraph.azure.health_monitoring;" vertex="1" parent="1">
          <mxGeometry x="540" y="430" width="30" height="24" as="geometry" />
        </mxCell>
        <mxCell id="eBox8F9J_3k4DlokBTBl-12" value="" style="sketch=0;aspect=fixed;pointerEvents=1;shadow=0;dashed=0;html=1;strokeColor=none;labelPosition=center;verticalLabelPosition=bottom;verticalAlign=top;align=center;fillColor=#00188D;shape=mxgraph.mscae.enterprise.workstation_client" vertex="1" parent="1">
          <mxGeometry x="230" y="375" width="50" height="50" as="geometry" />
        </mxCell>
        <mxCell id="eBox8F9J_3k4DlokBTBl-13" value="" style="endArrow=classic;html=1;rounded=0;exitX=1;exitY=0.5;exitDx=0;exitDy=0;exitPerimeter=0;entryX=0;entryY=0.5;entryDx=0;entryDy=0;" edge="1" parent="1" source="eBox8F9J_3k4DlokBTBl-12" target="eBox8F9J_3k4DlokBTBl-2">
          <mxGeometry width="50" height="50" relative="1" as="geometry">
            <mxPoint x="510" y="490" as="sourcePoint" />
            <mxPoint x="560" y="440" as="targetPoint" />
          </mxGeometry>
        </mxCell>
        <mxCell id="eBox8F9J_3k4DlokBTBl-15" value="" style="edgeStyle=elbowEdgeStyle;elbow=horizontal;endArrow=classic;html=1;curved=0;rounded=0;endSize=8;startSize=8;entryX=0;entryY=0.5;entryDx=0;entryDy=0;" edge="1" parent="1" target="eBox8F9J_3k4DlokBTBl-17">
          <mxGeometry width="50" height="50" relative="1" as="geometry">
            <mxPoint x="440" y="400" as="sourcePoint" />
            <mxPoint x="600" y="280" as="targetPoint" />
            <Array as="points">
              <mxPoint x="470" y="330" />
            </Array>
          </mxGeometry>
        </mxCell>
        <mxCell id="eBox8F9J_3k4DlokBTBl-17" value="&lt;div style=&quot;&quot;&gt;Nginx&lt;/div&gt;" style="align=center;verticalAlign=middle;fontFamily=Tahoma;fillColor=#005f4b;strokeColor=none;fontColor=#ffffff;strokeWidth=2;html=1;whiteSpace=wrap;spacing=6;fontStyle=0" vertex="1" parent="1">
          <mxGeometry x="640" y="260" width="80" height="40" as="geometry" />
        </mxCell>
        <mxCell id="eBox8F9J_3k4DlokBTBl-21" value="" style="edgeStyle=elbowEdgeStyle;elbow=horizontal;endArrow=classic;html=1;curved=0;rounded=0;endSize=8;startSize=8;entryX=0;entryY=0.5;entryDx=0;entryDy=0;exitX=1;exitY=0.5;exitDx=0;exitDy=0;dashed=1;" edge="1" parent="1" target="eBox8F9J_3k4DlokBTBl-22" source="eBox8F9J_3k4DlokBTBl-2">
          <mxGeometry width="50" height="50" relative="1" as="geometry">
            <mxPoint x="440" y="640" as="sourcePoint" />
            <mxPoint x="600" y="520" as="targetPoint" />
            <Array as="points">
              <mxPoint x="470" y="460" />
            </Array>
          </mxGeometry>
        </mxCell>
        <mxCell id="eBox8F9J_3k4DlokBTBl-22" value="&lt;div style=&quot;&quot;&gt;Nginx&lt;/div&gt;" style="align=center;verticalAlign=middle;fontFamily=Tahoma;fillColor=#005f4b;strokeColor=none;fontColor=#ffffff;strokeWidth=2;html=1;whiteSpace=wrap;spacing=6;fontStyle=0;dashed=1;" vertex="1" parent="1">
          <mxGeometry x="640" y="500" width="80" height="40" as="geometry" />
        </mxCell>
        <mxCell id="eBox8F9J_3k4DlokBTBl-24" value="&lt;div&gt;HKVEBSAPP001P&lt;/div&gt;&lt;div&gt;10.3.131.21&lt;/div&gt;" style="sketch=0;shadow=0;dashed=0;html=1;labelPosition=center;verticalLabelPosition=bottom;verticalAlign=top;align=center;outlineConnect=0;shape=mxgraph.veeam.3d.virtual_machine;" vertex="1" parent="1">
          <mxGeometry x="840" y="120" width="46" height="46" as="geometry" />
        </mxCell>
        <mxCell id="eBox8F9J_3k4DlokBTBl-25" value="&lt;div&gt;HKVEBSAPP002P&lt;/div&gt;&lt;div&gt;10.3.131.22&lt;/div&gt;" style="sketch=0;shadow=0;dashed=0;html=1;labelPosition=center;verticalLabelPosition=bottom;verticalAlign=top;align=center;outlineConnect=0;shape=mxgraph.veeam.3d.virtual_machine;" vertex="1" parent="1">
          <mxGeometry x="840" y="214" width="46" height="46" as="geometry" />
        </mxCell>
        <mxCell id="eBox8F9J_3k4DlokBTBl-39" value="" style="edgeStyle=orthogonalEdgeStyle;rounded=0;orthogonalLoop=1;jettySize=auto;html=1;" edge="1" parent="1" source="eBox8F9J_3k4DlokBTBl-26" target="eBox8F9J_3k4DlokBTBl-34">
          <mxGeometry relative="1" as="geometry">
            <Array as="points">
              <mxPoint x="940" y="480" />
              <mxPoint x="940" y="520" />
            </Array>
          </mxGeometry>
        </mxCell>
        <mxCell id="eBox8F9J_3k4DlokBTBl-26" value="&lt;div&gt;HKVEBSAPP001U&lt;/div&gt;&lt;div&gt;10.3.131.31&lt;/div&gt;" style="sketch=0;shadow=0;dashed=0;html=1;labelPosition=center;verticalLabelPosition=bottom;verticalAlign=top;align=center;outlineConnect=0;shape=mxgraph.veeam.3d.virtual_machine;" vertex="1" parent="1">
          <mxGeometry x="840" y="454" width="46" height="46" as="geometry" />
        </mxCell>
        <mxCell id="eBox8F9J_3k4DlokBTBl-38" value="" style="edgeStyle=orthogonalEdgeStyle;rounded=0;orthogonalLoop=1;jettySize=auto;html=1;" edge="1" parent="1" source="eBox8F9J_3k4DlokBTBl-27" target="eBox8F9J_3k4DlokBTBl-34">
          <mxGeometry relative="1" as="geometry">
            <Array as="points">
              <mxPoint x="940" y="573" />
              <mxPoint x="940" y="520" />
            </Array>
          </mxGeometry>
        </mxCell>
        <mxCell id="eBox8F9J_3k4DlokBTBl-27" value="&lt;div&gt;HKVEBSAPP002U&lt;/div&gt;&lt;div&gt;10.3.131.32&lt;/div&gt;" style="sketch=0;shadow=0;dashed=0;html=1;labelPosition=center;verticalLabelPosition=bottom;verticalAlign=top;align=center;outlineConnect=0;shape=mxgraph.veeam.3d.virtual_machine;" vertex="1" parent="1">
          <mxGeometry x="840" y="550" width="46" height="46" as="geometry" />
        </mxCell>
        <mxCell id="eBox8F9J_3k4DlokBTBl-28" value="" style="edgeStyle=elbowEdgeStyle;elbow=horizontal;endArrow=classic;html=1;curved=0;rounded=0;endSize=8;startSize=8;" edge="1" parent="1" target="eBox8F9J_3k4DlokBTBl-24">
          <mxGeometry width="50" height="50" relative="1" as="geometry">
            <mxPoint x="720" y="270" as="sourcePoint" />
            <mxPoint x="780" y="280" as="targetPoint" />
            <Array as="points">
              <mxPoint x="800" y="250" />
            </Array>
          </mxGeometry>
        </mxCell>
        <mxCell id="eBox8F9J_3k4DlokBTBl-29" value="" style="edgeStyle=elbowEdgeStyle;elbow=horizontal;endArrow=classic;html=1;curved=0;rounded=0;endSize=8;startSize=8;exitX=1;exitY=0.25;exitDx=0;exitDy=0;dashed=1;" edge="1" parent="1" source="eBox8F9J_3k4DlokBTBl-17" target="eBox8F9J_3k4DlokBTBl-25">
          <mxGeometry width="50" height="50" relative="1" as="geometry">
            <mxPoint x="720" y="280" as="sourcePoint" />
            <mxPoint x="1150" y="270" as="targetPoint" />
            <Array as="points">
              <mxPoint x="800" y="300" />
            </Array>
          </mxGeometry>
        </mxCell>
        <mxCell id="eBox8F9J_3k4DlokBTBl-31" value="" style="edgeStyle=elbowEdgeStyle;elbow=horizontal;endArrow=classic;html=1;curved=0;rounded=0;endSize=8;startSize=8;exitX=1;exitY=0.75;exitDx=0;exitDy=0;" edge="1" parent="1" source="eBox8F9J_3k4DlokBTBl-17" target="eBox8F9J_3k4DlokBTBl-26">
          <mxGeometry width="50" height="50" relative="1" as="geometry">
            <mxPoint x="810" y="330" as="sourcePoint" />
            <mxPoint x="930" y="395" as="targetPoint" />
            <Array as="points">
              <mxPoint x="800" y="380" />
            </Array>
          </mxGeometry>
        </mxCell>
        <mxCell id="eBox8F9J_3k4DlokBTBl-32" value="" style="edgeStyle=elbowEdgeStyle;elbow=horizontal;endArrow=classic;html=1;curved=0;rounded=0;endSize=8;startSize=8;dashed=1;" edge="1" parent="1" target="eBox8F9J_3k4DlokBTBl-27">
          <mxGeometry width="50" height="50" relative="1" as="geometry">
            <mxPoint x="730" y="290" as="sourcePoint" />
            <mxPoint x="1100" y="475" as="targetPoint" />
            <Array as="points">
              <mxPoint x="800" y="430" />
            </Array>
          </mxGeometry>
        </mxCell>
        <mxCell id="eBox8F9J_3k4DlokBTBl-33" value="&lt;div&gt;HKVEBSDBS001P&lt;/div&gt;&lt;div&gt;10.3.131.23&lt;/div&gt;" style="sketch=0;shadow=0;dashed=0;html=1;labelPosition=center;verticalLabelPosition=bottom;verticalAlign=top;align=center;outlineConnect=0;shape=mxgraph.veeam.3d.virtual_machine;" vertex="1" parent="1">
          <mxGeometry x="980" y="168" width="46" height="46" as="geometry" />
        </mxCell>
        <mxCell id="eBox8F9J_3k4DlokBTBl-34" value="&lt;div&gt;HKVEBSDBS001U&lt;/div&gt;&lt;div&gt;10.3.131.33&lt;/div&gt;" style="sketch=0;shadow=0;dashed=0;html=1;labelPosition=center;verticalLabelPosition=bottom;verticalAlign=top;align=center;outlineConnect=0;shape=mxgraph.veeam.3d.virtual_machine;" vertex="1" parent="1">
          <mxGeometry x="980" y="497" width="46" height="46" as="geometry" />
        </mxCell>
        <mxCell id="eBox8F9J_3k4DlokBTBl-35" value="" style="edgeStyle=elbowEdgeStyle;elbow=horizontal;endArrow=classic;html=1;curved=0;rounded=0;endSize=8;startSize=8;" edge="1" parent="1" source="eBox8F9J_3k4DlokBTBl-24" target="eBox8F9J_3k4DlokBTBl-33">
          <mxGeometry width="50" height="50" relative="1" as="geometry">
            <mxPoint x="820" y="263" as="sourcePoint" />
            <mxPoint x="970" y="190" as="targetPoint" />
            <Array as="points">
              <mxPoint x="940" y="190" />
            </Array>
          </mxGeometry>
        </mxCell>
        <mxCell id="eBox8F9J_3k4DlokBTBl-36" value="" style="edgeStyle=elbowEdgeStyle;elbow=horizontal;endArrow=classic;html=1;curved=0;rounded=0;endSize=8;startSize=8;" edge="1" parent="1" source="eBox8F9J_3k4DlokBTBl-25">
          <mxGeometry width="50" height="50" relative="1" as="geometry">
            <mxPoint x="1030" y="323" as="sourcePoint" />
            <mxPoint x="980" y="190" as="targetPoint" />
            <Array as="points">
              <mxPoint x="940" y="210" />
            </Array>
          </mxGeometry>
        </mxCell>
        <mxCell id="eBox8F9J_3k4DlokBTBl-43" value="" style="rounded=0;whiteSpace=wrap;html=1;fillColor=none;strokeColor=#00B336;strokeWidth=2;" vertex="1" parent="1">
          <mxGeometry x="780" y="100" width="300" height="210" as="geometry" />
        </mxCell>
        <mxCell id="eBox8F9J_3k4DlokBTBl-41" value="" style="edgeStyle=elbowEdgeStyle;elbow=horizontal;endArrow=classic;html=1;curved=0;rounded=0;endSize=8;startSize=8;exitX=1;exitY=0.5;exitDx=0;exitDy=0;dashed=1;" edge="1" parent="1">
          <mxGeometry width="50" height="50" relative="1" as="geometry">
            <mxPoint x="720" y="510" as="sourcePoint" />
            <mxPoint x="750" y="270" as="targetPoint" />
            <Array as="points">
              <mxPoint x="750" y="490" />
            </Array>
          </mxGeometry>
        </mxCell>
        <mxCell id="eBox8F9J_3k4DlokBTBl-42" value="" style="edgeStyle=elbowEdgeStyle;elbow=horizontal;endArrow=classic;html=1;curved=0;rounded=0;endSize=8;startSize=8;exitX=1;exitY=0.75;exitDx=0;exitDy=0;dashed=1;" edge="1" parent="1" source="eBox8F9J_3k4DlokBTBl-22">
          <mxGeometry width="50" height="50" relative="1" as="geometry">
            <mxPoint x="990" y="720" as="sourcePoint" />
            <mxPoint x="770" y="290" as="targetPoint" />
            <Array as="points">
              <mxPoint x="770" y="390" />
            </Array>
          </mxGeometry>
        </mxCell>
        <mxCell id="eBox8F9J_3k4DlokBTBl-46" value="Production Environment" style="text;html=1;align=center;verticalAlign=middle;whiteSpace=wrap;rounded=0;" vertex="1" parent="1">
          <mxGeometry x="800" y="310" width="150" height="30" as="geometry" />
        </mxCell>
        <mxCell id="eBox8F9J_3k4DlokBTBl-47" value="UAT Environment" style="text;html=1;align=center;verticalAlign=middle;whiteSpace=wrap;rounded=0;" vertex="1" parent="1">
          <mxGeometry x="780" y="400" width="150" height="30" as="geometry" />
        </mxCell>
        <mxCell id="eBox8F9J_3k4DlokBTBl-49" value="" style="verticalLabelPosition=bottom;html=1;verticalAlign=top;align=center;strokeColor=#b85450;fillColor=#f8cecc;shape=mxgraph.azure.healthy;" vertex="1" parent="1">
          <mxGeometry x="886" y="110" width="25" height="22" as="geometry" />
        </mxCell>
        <mxCell id="eBox8F9J_3k4DlokBTBl-50" value="" style="verticalLabelPosition=bottom;html=1;verticalAlign=top;align=center;strokeColor=#b85450;fillColor=#f8cecc;shape=mxgraph.azure.healthy;" vertex="1" parent="1">
          <mxGeometry x="886" y="440" width="25" height="22" as="geometry" />
        </mxCell>
        <mxCell id="eBox8F9J_3k4DlokBTBl-51" value="" style="verticalLabelPosition=bottom;html=1;verticalAlign=top;align=center;strokeColor=#b85450;fillColor=#f8cecc;shape=mxgraph.azure.healthy;" vertex="1" parent="1">
          <mxGeometry x="710" y="310" width="25" height="22" as="geometry" />
        </mxCell>
      </root>
    </mxGraphModel>
  </diagram>
</mxfile>
